HIERARCHY
ROOT Hips
{
  OFFSET 0 0 0
  CHANNELS 6 Xposition Yposition Zposition Zrotation Yrotation Xrotation
  JOINT LeftThigh
  {
    OFFSET 8.409438 0 -5.917753
    CHANNELS 3 Zrotation Yrotation Xrotation
    JOINT LeftLeg
    {
      OFFSET 0 0 -42.358652
      CHANNELS 3 Zrotation Yrotation Xrotation
      JOINT LeftFoot
      {
        OFFSET 0 0 -39.357303
        CHANNELS 3 Zrotation Yrotation Xrotation
      }
    }
  }
  JOINT RightThigh
  {
    OFFSET -8.409438 0 -5.917753
    CHANNELS 3 Zrotation Yrotation Xrotation
    JOINT RightLeg
    {
      OFFSET 0 0 -42.358652
      CHANNELS 3 Zrotation Yrotation Xrotation
      JOINT RightFoot
      {
        OFFSET 0 0 -39.357303
        CHANNELS 3 Zrotation Yrotation Xrotation
      }
    }
  }
  JOINT SpineLow
  {
    OFFSET 0 0 4.719101
    CHANNELS 3 Zrotation Yrotation Xrotation
    JOINT SpineMid
    {
      OFFSET 0 0 12.899191
      CHANNELS 3 Zrotation Yrotation Xrotation
      JOINT Chest
      {
        OFFSET 0 0 12.899191
        CHANNELS 3 Zrotation Yrotation Xrotation
        JOINT LeftShoulder
        {
          OFFSET 7.550562 1.41573 9.438202
          CHANNELS 3 Zrotation Yrotation Xrotation
          JOINT LeftArm
          {
            OFFSET 9.155056 0 4.247191
            CHANNELS 3 Zrotation Yrotation Xrotation
            JOINT LeftForearm
            {
              OFFSET 0 0 25.771955
              CHANNELS 3 Zrotation Yrotation Xrotation
              JOINT LeftHand
              {
                OFFSET 0 0 25.197169
                CHANNELS 3 Zrotation Yrotation Xrotation
              }
            }
          }
        }
        JOINT RightShoulder
        {
          OFFSET -7.550562 1.41573 9.438202
          CHANNELS 3 Zrotation Yrotation Xrotation
          JOINT RightArm
          {
            OFFSET -9.155056 0 4.247191
            CHANNELS 3 Zrotation Yrotation Xrotation
            JOINT RightForearm
            {
              OFFSET 0 0 -25.771955
              CHANNELS 3 Zrotation Yrotation Xrotation
              JOINT RightHand
              {
                OFFSET 0 0 -25.197169
                CHANNELS 3 Zrotation Yrotation Xrotation
              }
            }
          }
        }
        JOINT Neck
        {
          OFFSET 0 0 15.101124
          CHANNELS 3 Zrotation Yrotation Xrotation
          JOINT Head
          {
            OFFSET 0 0 11.325843
            CHANNELS 3 Zrotation Yrotation Xrotation
            End Site
            {
              OFFSET 0 0 14.157303
            }
          }
        }
      }
    }
  }
}
MOTION
Frames: 14
Frame Time: 0.0
0.0  93.25843  0.0  -2.165693  41.834104  -90.627528  0.66787  -17.736802  22.306255  -2.612858  -1.695692  6.758369  7.371377  1.840694  3.555211  -17.342358  -16.219423  -27.702733  3.428219  26.332883  44.102796  2.893501  5.126746  1.754205  0.495704  -0.885679  0.425819  1.339864  -2.429443  1.146193  1.339864  -2.429443  1.146193  -28.574475  23.840458  3.076746  121.702864  40.514025  -169.768005  -15.544143  6.546168  76.67509  40.533029  -30.878233  22.383894  4.961602  -13.678419  18.488604  25.987858  69.828572  -18.25947  -37.17669  -29.000097  -82.366992  56.511769  6.920715  -17.439199  -21.509609  -0.664582  1.801724  -16.130239  -0.562727  1.329827  
0.0  93.25843  0.0  -1.709695  42.481997  -90.204167  1.542463  -17.907984  21.763974  -1.24255  -1.716199  6.466908  6.64441  2.091128  3.20878  -18.007631  -15.935202  -28.887764  3.481043  27.142608  44.957294  3.584929  4.890164  1.654942  0.494946  -0.844355  0.486036  1.336354  -2.317692  1.311676  1.336354  -2.317693  1.311676  -28.609901  23.954673  3.117461  122.021284  40.712662  -169.526735  -16.446327  7.544492  76.175502  41.283931  -30.245573  22.232862  4.942249  -13.609839  18.487272  24.083659  69.860649  -19.71998  -37.253654  -29.274658  -82.266697  56.445105  6.840149  -17.558695  -21.822496  -0.795158  1.460645  -16.364824  -0.64955  1.068669  
0.0  93.25843  0.0  -1.186492  42.952677  -89.733675  2.749035  -17.486321  21.037509  -0.724812  -2.162961  6.374938  5.447351  1.709293  3.147778  -18.805636  -15.534696  -30.041307  4.06504  27.08565  45.99852  3.732918  4.821958  1.555039  0.488802  -0.800922  0.534409  1.318762  -2.19982  1.444986  1.318762  -2.19982  1.444986  -28.541687  24.123026  3.294846  122.541516  40.851282  -169.127536  -17.073338  8.514071  75.723437  42.251727  -29.767935  21.763341  4.916581  -13.439323  18.511857  23.030749  69.787264  -20.625653  -37.527461  -29.486489  -82.030282  56.37746  6.817602  -17.591534  -22.04905  -0.871873  1.17744  -16.534864  -0.697497  0.8529  
0.0  93.25843  0.0  -0.667629  43.23178  -89.205963  4.043087  -16.58764  20.454978  -1.819126  -3.344783  6.815881  4.504757  2.098208  1.989472  -19.661421  -15.156582  -31.135948  4.961667  26.584409  47.033782  3.531663  4.800469  1.469921  0.483587  -0.761235  0.541702  1.305106  -2.091378  1.465845  1.305106  -2.091378  1.465845  -28.42902  24.441204  3.57786  123.384188  40.905445  -168.761919  -17.641556  9.116035  75.155016  42.768302  -29.227812  21.718987  4.894096  -13.325713  18.750783  22.518506  69.748476  -21.121401  -37.946571  -29.599348  -81.750485  56.328391  6.818088  -17.573063  -22.207236  -0.862658  1.04214  -16.653703  -0.685968  0.751396  
0.0  93.25843  0.0  -0.203949  43.308605  -88.80524  5.222514  -15.629576  20.211809  -4.143491  -4.42418  6.573795  4.418374  3.047445  1.465348  -20.549896  -14.845149  -31.883789  5.648643  26.398385  47.616539  4.004553  4.843429  1.421971  0.491447  -0.714754  0.584154  1.326324  -1.965358  1.582554  1.326324  -1.965358  1.582554  -28.417196  24.740669  3.676709  124.204849  40.978382  -168.58878  -18.134856  9.542538  74.582961  43.309981  -28.670803  21.747912  4.830377  -13.250386  18.849128  22.388269  69.653386  -21.444726  -38.416753  -29.614624  -81.448424  56.314737  6.804441  -17.510369  -22.380164  -0.898808  0.888597  -16.783516  -0.7078  0.634503  
0.0  93.25843  0.0  0.172809  43.32512  -88.334233  4.976413  -15.56464  19.866438  -6.478475  -3.616233  5.699689  5.86221  3.291811  2.246444  -21.330172  -14.743066  -32.644407  6.516766  26.57791  48.115759  4.740682  4.539219  1.290837  0.503537  -0.65256  0.64404  1.359185  -1.796885  1.747139  1.359185  -1.796885  1.747138  -28.514381  24.756312  3.647476  124.950167  41.197215  -168.416076  -18.610856  9.968887  73.898588  44.102034  -28.231873  21.867086  4.733978  -13.254354  18.612312  22.550217  69.416561  -21.602898  -38.814293  -29.577828  -81.17061  56.210654  6.764002  -17.407146  -22.490206  -1.084024  0.765469  -16.865827  -0.842565  0.535017  
0.0  93.25843  0.0  0.688703  43.402997  -87.79469  3.707394  -15.525946  20.302148  -7.59805  -2.471313  4.561853  7.350212  3.149345  2.887553  -21.940713  -14.427196  -33.452795  7.158444  26.740899  48.559006  5.456867  4.096389  1.205596  0.528369  -0.555681  0.688993  1.428514  -1.533728  1.871357  1.428514  -1.533728  1.871356  -30.137279  24.641114  3.229479  127.122683  41.558062  -167.980156  -18.860799  10.424343  73.097853  45.008536  -27.942167  22.052722  3.928164  -13.237962  18.179081  24.210708  68.881436  -20.658969  -38.679145  -29.990496  -81.184712  56.214664  6.908585  -17.104886  -22.72707  -1.296953  0.755761  -17.043004  -1.002489  0.519373  
0.0  93.25843  0.0  1.206438  43.44293  -87.407142  1.810932  -15.401451  20.61444  -7.302603  -1.450227  4.403322  8.083821  3.328664  2.935628  -22.083991  -13.802746  -34.234833  7.490925  26.361102  49.124025  5.760573  3.905426  1.177269  0.553028  -0.450934  0.697919  1.498654  -1.24835  1.897472  1.498654  -1.24835  1.897472  -30.143816  24.504384  3.735976  128.086546  41.993373  -167.39328  -18.771296  10.789705  72.350343  45.853696  -27.76732  22.067279  3.482562  -13.369404  18.090137  25.259092  68.153613  -19.858031  -38.50877  -30.461721  -81.458382  55.895363  6.838712  -17.059827  -22.943492  -1.456205  0.939353  -17.204507  -1.129339  0.650843  
0.0  93.25843  0.0  1.896296  43.509094  -87.19438  0.275391  -14.394181  20.783701  -6.16692  -1.231237  4.779103  8.01593  3.32946  2.959498  -22.23501  -12.725789  -34.936739  7.732761  25.566331  49.873749  5.813747  3.738301  1.172382  0.27106  -0.247785  0.672148  0.733987  -0.684758  1.834507  0.733987  -0.684758  1.834507  -28.221189  24.13782  4.80203  129.283958  42.346178  -166.798741  -18.519844  10.807044  71.73736  46.550328  -27.72248  21.971008  4.762051  -13.903076  18.347232  26.526752  67.215589  -18.738362  -37.885873  -31.318575  -82.154798  55.698823  6.800979  -17.039127  -22.043914  -1.660967  1.480212  -16.527875  -1.301171  1.051737  
0.0  93.25843  0.0  2.232108  43.338621  -87.069298  -0.494871  -12.844917  20.705232  -4.939655  -1.967752  5.175677  8.070775  3.236239  2.980476  -22.070341  -11.962775  -35.658871  7.578776  24.844062  50.456408  5.722466  3.607603  1.209255  0.286297  -0.16354  0.711121  0.777688  -0.455385  1.941838  0.777688  -0.455385  1.941838  -28.225419  23.875528  5.028477  129.893645  42.624253  -166.562643  -18.421379  10.487074  71.321171  47.296939  -27.82164  21.776799  4.664361  -13.984731  17.915044  27.954154  66.169354  -17.431663  -37.243658  -31.969383  -82.998595  55.683359  6.735844  -17.022324  -22.044006  -1.810173  1.485197  -16.527353  -1.413428  1.050067  
0.0  93.25843  0.0  2.464962  43.043944  -86.938833  -0.937474  -11.347631  20.321825  -3.837666  -2.857703  5.705748  7.969897  3.202878  2.941669  -22.298382  -10.976307  -36.244043  7.232016  23.825627  50.820029  5.708663  3.438015  1.210807  0.334027  -0.085583  0.713964  0.910416  -0.243764  1.950335  0.910416  -0.243764  1.950334  -28.51182  23.694234  5.348897  130.311305  42.912242  -166.529965  -18.626983  9.90503  70.973726  48.018953  -27.964965  21.498797  4.358719  -14.210061  17.550479  29.429476  65.207789  -16.062696  -36.478712  -32.331661  -83.91516  55.76727  6.646324  -16.913698  -22.128299  -1.909066  1.474348  -16.590204  -1.487542  1.038077  
0.0  93.25843  0.0  2.631302  42.804002  -86.83821  -1.14046  -10.151604  19.976249  -3.358293  -3.67473  6.025841  7.891447  3.137534  2.852672  -22.607554  -10.550948  -36.800321  6.714512  23.527721  51.018929  5.784796  3.322594  1.212912  0.384356  -0.037118  0.724148  1.04938  -0.112951  1.97874  1.04938  -0.112951  1.97874  -28.981028  23.690958  5.583903  130.558546  43.271607  -166.603424  -19.016721  9.150668  70.718512  48.553681  -28.017366  20.914623  3.878971  -14.412597  17.104236  31.218742  64.385836  -14.532606  -35.81029  -32.213627  -84.760774  55.831445  6.523712  -16.701609  -22.159016  -1.974033  1.375438  -16.613281  -1.532828  0.961323  
0.0  93.25843  0.0  2.523605  42.201987  -87.201202  -0.332778  -9.658877  20.394518  -3.86613  -4.340134  5.684042  8.11188  3.110919  2.854783  -22.816312  -10.351093  -36.844678  6.300711  23.30474  51.056416  5.709838  3.222642  1.181723  0.43042  -0.038688  0.777351  1.175128  -0.119566  2.124049  1.175128  -0.119566  2.124049  -30.379012  23.639026  5.202196  132.199315  43.502787  -166.269633  -19.540598  8.515897  70.431622  48.960116  -27.961207  19.903775  3.665196  -14.521334  16.696934  31.981058  63.955279  -13.393878  -34.434439  -32.535695  -85.986648  55.892432  6.446134  -16.347811  -22.153017  -1.932707  1.163664  -16.609583  -1.494075  0.803785  
0.0  93.25843  0.0  2.355546  41.624522  -87.40031  0.616891  -10.029756  20.832489  -4.505238  -4.334046  5.054707  8.300864  3.082906  2.899585  -23.099175  -10.414564  -36.915193  5.757764  23.341811  50.846481  5.669037  3.154792  1.167359  0.455412  -0.066897  0.790253  1.242488  -0.197706  2.158737  1.242488  -0.197706  2.158737  -30.602696  23.847649  5.263801  132.993497  44.038111  -165.899168  -20.200679  8.288317  70.031448  49.375014  -27.773569  18.592067  3.278291  -14.487482  16.372917  34.56942  63.35551  -11.481614  -33.767682  -32.067706  -86.871979  55.833161  6.335629  -15.920476  -21.913805  -1.861874  1.050264  -16.430769  -1.436286  0.7219  
